<svg width="162" height="38" viewBox="0 0 162 38" fill="none" xmlns="http://www.w3.org/2000/svg">
<path d="M119.927 24.1289H43.3208C43.1204 24.1289 42.9283 24.2085 42.7867 24.3501C42.645 24.4918 42.5654 24.6839 42.5654 24.8842C42.5654 25.0846 42.645 25.2767 42.7867 25.4183C42.9283 25.56 43.1204 25.6396 43.3208 25.6396H119.251L119.927 24.1289Z" fill="url(#paint0_linear_42_1250)"/>
<path d="M160.343 24.1289H129.771C129.539 24.6521 129.267 25.1571 128.959 25.6396H160.343C160.544 25.6396 160.736 25.56 160.877 25.4183C161.019 25.2767 161.099 25.0846 161.099 24.8842C161.099 24.6839 161.019 24.4918 160.877 24.3501C160.736 24.2085 160.544 24.1289 160.343 24.1289Z" fill="url(#paint1_linear_42_1250)"/>
<path d="M16.3655 32.3579L1.5777 12.8681C-2.00386 8.13255 0.853835 1.30514 6.71399 0.514137C6.7689 0.506466 6.82431 0.502959 6.87975 0.503647L31.5667 0.115487C31.8527 0.114375 32.1292 0.218195 32.3438 0.407283C32.5584 0.596372 32.6962 0.857598 32.7311 1.14149C32.7659 1.42218 32.6976 1.70594 32.539 1.94013C32.3804 2.17433 32.1423 2.34307 31.8688 2.41507L9.77311 7.85559C9.55167 7.88104 9.34096 7.96482 9.16252 8.09837C8.98407 8.23193 8.84428 8.41047 8.75743 8.61574C8.67058 8.82102 8.63979 9.04567 8.66821 9.26674C8.69662 9.48781 8.78322 9.69738 8.91916 9.87402L24.4078 30.3646L16.3655 32.3579Z" fill="url(#paint2_linear_42_1250)"/>
<path d="M21.0885 5.06909L36.0274 24.5022C39.6258 29.2609 36.724 36.1302 30.803 36.8667L6.04475 37.2548C5.75908 37.2554 5.48309 37.1514 5.26893 36.9623C5.05476 36.7733 4.91724 36.5124 4.88237 36.2288C4.84766 35.9481 4.91593 35.6644 5.0745 35.4302C5.23308 35.196 5.4712 35.0273 5.74471 34.9553L27.8383 29.5147C28.0597 29.4893 28.2705 29.4055 28.4489 29.2719C28.6274 29.1384 28.7671 28.9599 28.854 28.7546C28.9408 28.5493 28.9716 28.3247 28.9432 28.1036C28.9148 27.8825 28.8282 27.6729 28.6923 27.4963L13.0694 7.05395L21.0885 5.06909Z" fill="url(#paint3_linear_42_1250)"/>
<path d="M51.6146 20.0793C52.056 20.0791 52.4952 20.0177 52.9197 19.8968C53.3324 19.7837 53.7232 19.6021 54.0758 19.3596C54.409 19.1304 54.6889 18.832 54.8962 18.4847C55.1089 18.1196 55.2164 17.7028 55.2067 17.2803C55.2186 16.7596 55.0723 16.2475 54.787 15.8116C54.4833 15.3636 54.1084 14.9681 53.6771 14.6409C53.1835 14.2641 52.6592 13.9293 52.1098 13.64C51.5223 13.3253 50.9243 13.0113 50.3159 12.698C49.7053 12.3853 49.1073 12.0538 48.5198 11.7097C47.9565 11.3831 47.4309 10.9954 46.9525 10.5537C46.5069 10.1426 46.1325 9.66047 45.8447 9.12691C45.5552 8.56881 45.4109 7.94683 45.4251 7.31829C45.4205 6.66923 45.5506 6.02626 45.8069 5.42995C46.0628 4.84727 46.4473 4.33008 46.9315 3.91718C47.4669 3.46703 48.0858 3.12692 48.7527 2.91636C49.555 2.66161 50.3933 2.53901 51.2349 2.55338C51.9959 2.54387 52.7549 2.63416 53.4925 2.82194C54.1175 2.98249 54.7096 3.25088 55.2423 3.61504C55.7431 3.96409 56.1755 4.40219 56.518 4.90751C56.8835 5.4547 57.1663 6.05282 57.3573 6.68255L55.8256 7.38124C55.6566 6.85434 55.4271 6.34881 55.1416 5.87476C54.8746 5.43585 54.538 5.04327 54.145 4.71238C53.7495 4.38287 53.2964 4.1296 52.8085 3.96544C52.2548 3.78362 51.6749 3.695 51.0922 3.70317C50.5926 3.69404 50.0953 3.77361 49.6235 3.93816C49.237 4.07944 48.8809 4.29307 48.5744 4.56761C48.3061 4.80663 48.0916 5.09983 47.9449 5.42785C47.8082 5.73503 47.7367 6.06726 47.7351 6.4035C47.731 6.86586 47.8784 7.31686 48.1548 7.68757C48.4764 8.11248 48.8622 8.4848 49.2983 8.7912C49.8146 9.16162 50.3558 9.49602 50.918 9.79202C51.5223 10.1179 52.1364 10.4445 52.7602 10.7719C53.3841 11.0992 54.0009 11.4447 54.6108 11.8084C55.187 12.1474 55.7294 12.5408 56.2306 12.9833C56.6848 13.385 57.071 13.8576 57.3741 14.3828C57.6634 14.9028 57.8117 15.4894 57.8042 16.0844C57.8085 16.7708 57.6714 17.4508 57.4013 18.0818C57.1276 18.7094 56.7134 19.2657 56.1907 19.7079C55.5991 20.1984 54.9189 20.5709 54.187 20.8053C53.2874 21.0888 52.3479 21.2248 51.4048 21.2081C50.6262 21.2196 49.8496 21.1243 49.0968 20.9249C48.4607 20.7547 47.8583 20.4773 47.3155 20.1045C46.8007 19.7477 46.352 19.3039 45.9895 18.7931C45.607 18.2492 45.3039 17.6537 45.0894 17.0244L46.6965 16.3656C46.8701 16.921 47.1261 17.4472 47.4561 17.9266C47.7604 18.3723 48.1345 18.7662 48.5639 19.0932C48.9886 19.4142 49.4636 19.6623 49.9697 19.8275C50.5011 19.9984 51.0564 20.0834 51.6146 20.0793Z" fill="#23153C"/>
<path d="M67.7954 21.0864C66.8925 21.0925 65.9979 20.914 65.1664 20.5618C64.3677 20.2275 63.6399 19.7439 63.0221 19.1372C62.4074 18.5312 61.9164 17.8115 61.5765 17.018C61.2246 16.2007 61.0474 15.3188 61.0562 14.4289C61.0455 13.3895 61.2086 12.3555 61.5387 11.3698C61.8356 10.4798 62.3016 9.65557 62.9109 8.94223C63.4997 8.2638 64.2265 7.71875 65.0427 7.34344C65.9147 6.9483 66.8633 6.75057 67.8206 6.76435C68.6667 6.75627 69.5058 6.91824 70.288 7.24063C71.011 7.5393 71.6703 7.97296 72.2309 8.5184C72.7672 9.04729 73.1949 9.67594 73.4898 10.369C73.7883 11.0613 73.9411 11.8076 73.9388 12.5616H63.6789C63.6705 13.4305 63.7907 14.2959 64.0355 15.1297C64.2478 15.8651 64.5888 16.557 65.0427 17.1733C65.4503 17.7275 65.9737 18.1864 66.5764 18.5182C67.1744 18.8429 67.8452 19.0097 68.5256 19.0029C69.1073 19.0047 69.6849 18.9068 70.2335 18.7134C70.7619 18.5298 71.2625 18.2742 71.7211 17.9538C72.1502 17.6527 72.5327 17.29 72.8562 16.8775C73.1543 16.5039 73.378 16.0765 73.515 15.6186L74.3081 15.969C74.1085 16.6826 73.7854 17.3558 73.3535 17.958C72.9207 18.5698 72.402 19.1161 71.8134 19.5799C71.2329 20.0383 70.5873 20.4074 69.8978 20.6751C69.229 20.9429 68.5158 21.0824 67.7954 21.0864ZM70.5126 11.4579C70.5167 10.9606 70.4233 10.4674 70.2377 10.006C69.8889 9.13632 69.21 8.44007 68.3494 8.0694C67.9126 7.87923 67.4409 7.78274 66.9646 7.78615C66.554 7.78547 66.1488 7.88029 65.7812 8.0631C65.3982 8.25031 65.0554 8.51045 64.772 8.82893C64.4657 9.17354 64.2183 9.56626 64.0397 9.99131C63.8436 10.4523 63.7272 10.9433 63.6956 11.4432L70.5126 11.4579Z" fill="#23153C"/>
<path d="M80.9342 20.7906H78.1919V0.780515L80.1495 0H80.9426L80.9342 20.7906Z" fill="#23153C"/>
<path d="M91.4651 1.02187C91.1766 1.0211 90.894 1.1034 90.651 1.25896C90.4013 1.42038 90.1872 1.63099 90.0216 1.87792C89.8409 2.14815 89.7049 2.4457 89.6187 2.75915C89.5238 3.09144 89.4758 3.43537 89.4761 3.78095V7.02051H93.1478V8.18289H89.4761V20.7907H86.7317V8.18289H83.8677V7.02051H86.7317V5.4322C86.7265 4.707 86.8634 3.9878 87.1345 3.31516C87.3888 2.67775 87.7611 2.09404 88.2318 1.59467C88.6937 1.10533 89.2459 0.70992 89.8579 0.430192C90.485 0.145945 91.1669 0.00270242 91.8554 0.0105606C92.3304 0.00930761 92.8033 0.0728377 93.2611 0.199395C93.7024 0.319727 94.1258 0.498238 94.52 0.730229C94.9042 0.954913 95.2511 1.23806 95.5481 1.56949C95.8479 1.9017 96.091 2.28093 96.2678 2.69201L94.2787 4.13134C94.1808 3.77186 94.064 3.40818 93.9283 3.0403C93.8011 2.6862 93.6291 2.34986 93.4164 2.03948C93.2134 1.74155 92.9477 1.49162 92.638 1.30722C92.2805 1.10661 91.8748 1.00792 91.4651 1.02187Z" fill="#23153C"/>
<path d="M101.538 20.0793C101.98 20.079 102.419 20.0176 102.843 19.8968C103.256 19.7833 103.646 19.6017 103.999 19.3596C104.332 19.1293 104.611 18.8311 104.82 18.4847C105.031 18.119 105.137 17.7025 105.128 17.2803C105.14 16.7596 104.994 16.2475 104.708 15.8116C104.405 15.3636 104.031 14.9681 103.601 14.6409C103.107 14.2641 102.583 13.9293 102.033 13.64C101.446 13.3253 100.847 13.0113 100.237 12.698C99.6288 12.3853 99.0287 12.0538 98.4413 11.7097C97.8789 11.3826 97.3541 10.9949 96.876 10.5537C96.4304 10.1421 96.0554 9.66008 95.7661 9.12691C95.4767 8.56881 95.3323 7.94683 95.3465 7.31829C95.3416 6.66898 95.4724 6.02581 95.7304 5.42995C95.9863 4.8478 96.3699 4.33075 96.853 3.91718C97.3886 3.46744 98.0074 3.12738 98.6742 2.91636C99.4764 2.66161 100.315 2.53901 101.156 2.55338C101.918 2.54373 102.678 2.63403 103.416 2.82194C104.04 2.98247 104.632 3.25088 105.164 3.61504C105.665 3.96459 106.098 4.40258 106.442 4.90751C106.806 5.45517 107.089 6.05316 107.281 6.68255L105.747 7.38334C105.579 6.85492 105.349 6.34847 105.061 5.87476C104.795 5.43862 104.46 5.04883 104.069 4.72077C103.672 4.39123 103.218 4.13798 102.73 3.97383C102.177 3.79191 101.598 3.70327 101.016 3.71156C100.513 3.70119 100.012 3.78077 99.5365 3.94655C99.1498 4.08737 98.7937 4.30104 98.4874 4.576C98.2193 4.81515 98.0048 5.10831 97.858 5.43625C97.7212 5.74342 97.6498 6.07565 97.6482 6.41189C97.6441 6.87425 97.7914 7.32525 98.0678 7.69596C98.3907 8.11978 98.7763 8.49193 99.2113 8.79959C99.7279 9.16955 100.269 9.50393 100.831 9.80041L102.682 10.7824C103.31 11.1139 103.926 11.4594 104.53 11.8188C105.107 12.1573 105.649 12.5508 106.15 12.9938C106.605 13.3949 106.991 13.8676 107.293 14.3933C107.58 14.9139 107.725 15.5007 107.713 16.0949C107.717 16.7813 107.58 17.4613 107.31 18.0923C107.038 18.7207 106.623 19.2773 106.1 19.7184C105.508 20.2093 104.828 20.5818 104.096 20.8157C103.196 21.0998 102.255 21.2358 101.312 21.2186C100.533 21.23 99.7564 21.1347 99.0036 20.9353C98.3677 20.7644 97.7655 20.487 97.2222 20.115C96.7081 19.7581 96.26 19.3144 95.8983 18.8036C95.5144 18.2603 95.2105 17.6646 94.9961 17.0349L96.6159 16.3656C96.7903 16.9206 97.0463 17.4467 97.3754 17.9266C97.6807 18.3723 98.0554 18.7661 98.4853 19.0932C98.91 19.4142 99.385 19.6623 99.8911 19.8275C100.423 19.9991 100.979 20.0841 101.538 20.0793Z" fill="#23153C"/>
<path d="M114.784 2.33936H115.564V7.02035H118.63V8.18273H115.564V17.8867C115.562 18.085 115.602 18.2814 115.68 18.4637C115.752 18.639 115.856 18.7992 115.988 18.9358C116.12 19.0709 116.277 19.178 116.452 19.2505C116.639 19.3291 116.84 19.3684 117.043 19.3659C117.339 19.3699 117.63 19.2907 117.883 19.1372C118.132 18.9856 118.356 18.7951 118.546 18.5728L119.232 19.0302C118.874 19.6453 118.369 20.1621 117.763 20.5346C117.085 20.9228 116.312 21.1139 115.531 21.0864C115.119 21.0959 114.71 21.0157 114.333 20.8514C114.003 20.7036 113.715 20.4774 113.493 20.1926C113.264 19.8921 113.097 19.549 113.002 19.1834C112.891 18.7603 112.836 18.3242 112.841 17.8867V8.18273H110.44V7.67917L112.834 7.02035V3.10728L114.784 2.33936Z" fill="#23153C"/>
<path d="M122.344 24.045C122.465 24.0973 122.583 24.1561 122.698 24.2212C122.828 24.2925 122.973 24.3618 123.128 24.431C123.296 24.5016 123.469 24.5578 123.647 24.5989C123.853 24.6451 124.064 24.6677 124.276 24.666C124.562 24.6658 124.842 24.582 125.082 24.4247C125.34 24.2582 125.571 24.0538 125.768 23.8184C125.977 23.5725 126.162 23.3069 126.32 23.0253C126.468 22.764 126.603 22.4951 126.723 22.2196L127.654 20.1424L120.621 7.02051H123.728L129.037 16.9721L133.38 7.02051H134.849L127.816 23.212C127.549 23.8333 127.208 24.4201 126.8 24.9598C126.452 25.4206 126.042 25.8321 125.583 26.183C125.18 26.4921 124.73 26.735 124.251 26.9027C123.824 27.0551 123.374 27.1352 122.921 27.1397C122.601 27.14 122.283 27.0897 121.979 26.9908C121.702 26.9067 121.443 26.7746 121.213 26.6005L122.344 24.045Z" fill="#23153C"/>
<path d="M140.255 20.7906H137.513V0.780515L139.462 0H140.255V20.7906Z" fill="#23153C"/>
<path d="M151.432 21.0864C150.433 21.0984 149.44 20.9108 148.514 20.5346C147.655 20.1894 146.871 19.6806 146.206 19.0365C145.548 18.3932 145.027 17.6239 144.673 16.7745C144.32 15.9252 144.141 15.0133 144.148 14.0933C144.142 13.1145 144.326 12.1439 144.691 11.2356C145.04 10.3671 145.555 9.57469 146.206 8.90242C146.863 8.23158 147.648 7.69873 148.514 7.3351C149.438 6.94782 150.431 6.7536 151.432 6.7644C152.423 6.75336 153.406 6.93139 154.33 7.28894C155.179 7.61755 155.958 8.10617 156.623 8.72828C157.266 9.33437 157.781 10.0636 158.136 10.8726C158.501 11.7057 158.687 12.6066 158.679 13.5163C158.686 14.521 158.502 15.5179 158.136 16.4537C157.79 17.3449 157.276 18.1617 156.623 18.8603C155.974 19.5492 155.195 20.1026 154.33 20.4885C153.418 20.8931 152.43 21.0971 151.432 21.0864ZM151.957 20.0793C152.476 20.0801 152.985 19.9347 153.426 19.6597C153.885 19.3697 154.278 18.9874 154.582 18.5372C154.918 18.0358 155.172 17.4841 155.335 16.9027C155.516 16.264 155.607 15.6028 155.604 14.9388C155.609 14.0005 155.523 13.0638 155.348 12.142C155.201 11.3417 154.917 10.5729 154.508 9.86967C154.133 9.20668 153.582 8.66071 152.915 8.29251C152.248 7.92431 151.492 7.74831 150.732 7.7841C150.268 7.79432 149.817 7.93227 149.427 8.18275C148.979 8.46369 148.593 8.83191 148.292 9.2654C147.946 9.7569 147.679 10.2991 147.5 10.8726C147.3 11.5057 147.201 12.1662 147.205 12.8302C147.198 13.7808 147.305 14.7287 147.521 15.6543C147.703 16.469 148.016 17.2486 148.449 17.9623C148.825 18.584 149.334 19.1144 149.941 19.5149C150.542 19.8981 151.244 20.0944 151.957 20.0793Z" fill="#23153C"/>
<path d="M44.8521 35.2219V32.8908L42.7539 29.2253H44.1555L45.4983 31.7431L46.8327 29.2253H48.2028L46.1047 32.8908V35.2219H44.8521Z" fill="#23153C"/>
<path d="M51.2392 35.3476C50.9235 35.3508 50.6104 35.2909 50.3181 35.1714C50.0419 35.0565 49.7914 34.8874 49.5817 34.6741C49.3719 34.4607 49.2071 34.2074 49.097 33.9293C48.9799 33.6306 48.9215 33.3122 48.925 32.9914C48.9216 32.6716 48.9815 32.3543 49.1012 32.0577C49.2167 31.7792 49.3848 31.5256 49.5964 31.3108C49.8086 31.0969 50.061 30.9272 50.3391 30.8114C50.6357 30.6917 50.953 30.6318 51.2728 30.6351C51.5885 30.632 51.9016 30.6919 52.1939 30.8114C52.4691 30.926 52.7188 31.0944 52.9282 31.3066C53.1376 31.5199 53.303 31.7722 53.415 32.0493C53.6472 32.6516 53.6472 33.3186 53.415 33.9209C53.3008 34.2013 53.1326 34.4565 52.9198 34.672C52.7076 34.8858 52.4552 35.0556 52.1771 35.1714C51.8792 35.2916 51.5604 35.3515 51.2392 35.3476ZM51.256 34.2838C51.4601 34.2863 51.6602 34.2279 51.8309 34.116C52.0022 33.9994 52.1403 33.8404 52.2317 33.6544C52.3284 33.4468 52.3786 33.2205 52.3786 32.9914C52.3786 32.7623 52.3284 32.536 52.2317 32.3284C52.1408 32.1426 52.0026 31.9841 51.8309 31.8689C51.6601 31.7569 51.4603 31.6973 51.256 31.6973C51.0518 31.6973 50.852 31.7569 50.6811 31.8689C50.5094 31.9841 50.3712 32.1426 50.2804 32.3284C50.1836 32.536 50.1334 32.7623 50.1334 32.9914C50.1334 33.2205 50.1836 33.4468 50.2804 33.6544C50.3717 33.8404 50.5098 33.9994 50.6811 34.116C50.8518 34.2279 51.0519 34.2863 51.256 34.2838Z" fill="#23153C"/>
<path d="M57.4474 35.3476C57.078 35.3561 56.7127 35.2678 56.3879 35.0916C56.0869 34.9204 55.8432 34.6642 55.6871 34.3551C55.5125 34.0058 55.4267 33.6188 55.4374 33.2284V30.761H56.6187V33.2536C56.6036 33.5245 56.6846 33.7919 56.8474 34.0089C56.926 34.0941 57.0213 34.1621 57.1275 34.2086C57.2337 34.2551 57.3483 34.2791 57.4642 34.2791C57.5801 34.2791 57.6948 34.2551 57.8009 34.2086C57.9071 34.1621 58.0025 34.0941 58.0811 34.0089C58.2439 33.7919 58.3249 33.5245 58.3098 33.2536V30.761H59.4911V33.2284C59.4958 33.5248 59.4475 33.8197 59.3484 34.0992C59.2557 34.348 59.1129 34.5751 58.9287 34.7664C58.7457 34.9532 58.5256 35.0997 58.2825 35.1965C58.0163 35.2995 57.7329 35.3508 57.4474 35.3476Z" fill="#23153C"/>
<path d="M61.5093 35.2217V30.761H62.6003L62.6423 31.4366C62.7415 31.2172 62.8989 31.0292 63.0976 30.8932C63.2985 30.7631 63.5339 30.6966 63.7732 30.7022C63.8527 30.7018 63.9321 30.7089 64.0103 30.7232C64.0814 30.7365 64.1515 30.7547 64.2201 30.7778L64.0921 31.9443C64.0312 31.9217 63.9678 31.9062 63.9033 31.8982C63.8372 31.8897 63.7706 31.8855 63.7039 31.8856C63.5643 31.8765 63.4244 31.8988 63.2945 31.9507C63.1645 32.0026 63.0478 32.0829 62.9528 32.1856C62.7674 32.4248 62.6742 32.7227 62.6905 33.0249V35.2133L61.5093 35.2217Z" fill="#23153C"/>
<path d="M70.708 35.3478C70.3679 35.3518 70.0304 35.2876 69.7156 35.1589C69.422 35.0378 69.159 34.8529 68.9456 34.6176C68.7329 34.3786 68.5836 34.09 68.5112 33.7784L69.6862 33.5245C69.7493 33.7426 69.8847 33.9327 70.0702 34.0637C70.2361 34.1717 70.4261 34.2371 70.6233 34.2543C70.8205 34.2715 71.0189 34.2399 71.2011 34.1623C71.3307 34.105 71.4419 34.0127 71.5221 33.8958C71.5998 33.7815 71.6402 33.6459 71.6375 33.5077C71.6401 33.421 71.6225 33.335 71.5861 33.2563C71.5497 33.1776 71.4954 33.1085 71.4277 33.0545C71.223 32.9114 70.9896 32.8148 70.7437 32.7712L70.473 32.7125C69.9629 32.6326 69.4873 32.405 69.105 32.0579C68.9615 31.9132 68.8487 31.7411 68.7733 31.5518C68.698 31.3626 68.6616 31.16 68.6665 30.9563C68.6611 30.7004 68.7134 30.4465 68.8197 30.2136C68.9249 29.9892 69.0757 29.7891 69.2624 29.6261C69.4574 29.4568 69.6823 29.3252 69.9254 29.2379C70.4942 29.0358 71.1179 29.0522 71.6753 29.2841C71.9552 29.4023 72.2037 29.584 72.4012 29.8149C72.6032 30.0491 72.7425 30.3306 72.8062 30.6332L71.6501 30.8871C71.594 30.6797 71.4708 30.4967 71.2997 30.3667C71.1313 30.2455 70.9281 30.1822 70.7206 30.1863C70.5758 30.1826 70.4321 30.2128 70.301 30.2744C70.1855 30.3291 70.0869 30.4139 70.0156 30.5199C69.9444 30.6228 69.907 30.7452 69.9086 30.8703C69.9044 30.9589 69.9233 31.047 69.9634 31.1261C70.0034 31.2051 70.0634 31.2725 70.1373 31.3214C70.3449 31.448 70.5738 31.5354 70.8129 31.5795L71.0836 31.6382C71.5895 31.7199 72.0621 31.9424 72.4474 32.2803C72.5942 32.427 72.7093 32.6024 72.7855 32.7955C72.8617 32.9886 72.8973 33.1953 72.8901 33.4028C72.8939 33.6685 72.8396 33.9319 72.7308 34.1743C72.6221 34.4168 72.4616 34.6326 72.2606 34.8064C72.0578 34.9844 71.8218 35.1206 71.5661 35.2072C71.2899 35.3016 70.9999 35.3491 70.708 35.3478Z" fill="#23153C"/>
<path d="M76.5824 35.3478C76.305 35.3561 76.03 35.294 75.783 35.1673C75.5619 35.0474 75.3826 34.863 75.269 34.6386C75.1409 34.3778 75.0782 34.0898 75.0864 33.7993V31.7201H74.3164V30.7654H75.0759V29.2463H76.2593V30.7654H77.4762V31.7201H76.2593V33.6546C76.2478 33.83 76.295 34.0042 76.3936 34.1497C76.4447 34.2099 76.5094 34.2569 76.5824 34.2869C76.6555 34.3168 76.7346 34.3288 76.8132 34.3218C76.9167 34.3213 77.0197 34.3072 77.1195 34.2798C77.2281 34.2526 77.3341 34.2161 77.4364 34.1707L77.6462 35.0561C77.4934 35.1477 77.3289 35.2182 77.1573 35.266C76.9706 35.3209 76.777 35.3485 76.5824 35.3478Z" fill="#23153C"/>
<path d="M80.1494 36.9443C80.0082 36.9446 79.8675 36.9291 79.7297 36.8981C79.5961 36.8677 79.4674 36.8183 79.3479 36.7512L79.5766 35.8217C79.6475 35.8527 79.7213 35.8766 79.7969 35.8931C79.8739 35.9114 79.9527 35.9212 80.0319 35.9225C80.1819 35.9236 80.3285 35.8782 80.4515 35.7924C80.5886 35.6831 80.6925 35.5378 80.7515 35.3727L80.8271 35.1797L79.0269 30.761H80.3193L81.3684 33.9208L82.3231 30.761H83.5715L81.7398 35.6434C81.6171 36.0249 81.3939 36.3663 81.0935 36.6316C80.8248 36.8425 80.4909 36.953 80.1494 36.9443Z" fill="#23153C"/>
<path d="M85.2207 35.2217V28.9272H86.4041V35.2217H85.2207Z" fill="#23153C"/>
<path d="M89.6896 29.5546C89.6913 29.6757 89.6609 29.7952 89.6015 29.9007C89.5429 30.0013 89.4581 30.084 89.356 30.1399C89.2518 30.1992 89.1339 30.2303 89.014 30.2303C88.8941 30.2303 88.7763 30.1992 88.672 30.1399C88.5699 30.084 88.4851 30.0013 88.4265 29.9007C88.3687 29.7941 88.3384 29.6748 88.3384 29.5535C88.3384 29.4322 88.3687 29.3129 88.4265 29.2063C88.4851 29.1057 88.5699 29.023 88.672 28.9671C88.7763 28.9078 88.8941 28.8767 89.014 28.8767C89.1339 28.8767 89.2518 28.9078 89.356 28.9671C89.4581 29.023 89.5429 29.1057 89.6015 29.2063C89.6612 29.3125 89.6916 29.4327 89.6896 29.5546ZM88.4307 35.2196V30.761H89.6141V35.2217L88.4307 35.2196Z" fill="#23153C"/>
<path d="M91.6245 35.2217V30.761H92.7135L92.7491 31.3359C92.8793 31.1212 93.0639 30.9446 93.2842 30.824C93.5246 30.6951 93.794 30.6301 94.0668 30.6351C94.3686 30.6285 94.6659 30.7094 94.9228 30.868C95.1741 31.0281 95.3726 31.2587 95.4935 31.5311C95.6372 31.8493 95.7088 32.1953 95.7033 32.5445V35.2217H94.52V32.7039C94.5348 32.4438 94.4608 32.1864 94.3102 31.9738C94.2416 31.8862 94.153 31.8163 94.0519 31.7699C93.9508 31.7236 93.8401 31.7021 93.729 31.7073C93.5625 31.704 93.3984 31.7469 93.2548 31.8311C93.1185 31.9136 93.0075 32.0319 92.9338 32.1731C92.8542 32.3266 92.8138 32.4975 92.8163 32.6704V35.2301L91.6245 35.2217Z" fill="#23153C"/>
<path d="M99.5491 35.0959C99.2761 35.098 99.0061 35.0399 98.7581 34.926C98.5188 34.8141 98.3047 34.655 98.1286 34.4581C97.9464 34.2526 97.8041 34.015 97.709 33.7573C97.5019 33.1895 97.5019 32.5668 97.709 31.999C97.8066 31.7346 97.9557 31.4922 98.1475 31.2857C98.3335 31.0844 98.5574 30.9219 98.8063 30.8073C99.0626 30.6911 99.3412 30.6324 99.6225 30.6352C99.8912 30.6308 100.157 30.6897 100.399 30.8073C100.63 30.9235 100.828 31.0968 100.974 31.3109L100.999 30.7611H102.088V34.6889C102.092 35.009 102.037 35.327 101.924 35.6268C101.82 35.8985 101.661 36.1454 101.455 36.3514C101.25 36.5575 101.004 36.718 100.732 36.8227C100.437 36.9348 100.123 36.9904 99.8072 36.9864C99.5021 36.9917 99.1987 36.9391 98.9133 36.8311C98.6563 36.7319 98.4206 36.5845 98.2189 36.3968C98.0235 36.2121 97.8661 35.9912 97.7552 35.7464L98.8861 35.4673C98.9834 35.6263 99.119 35.7583 99.2805 35.8513C99.4513 35.9449 99.6428 35.994 99.8376 35.994C100.032 35.994 100.224 35.9449 100.395 35.8513C100.557 35.7499 100.687 35.6043 100.77 35.4316C100.865 35.2358 100.912 35.0199 100.907 34.8022V34.4392C100.753 34.641 100.555 34.8041 100.328 34.9155C100.086 35.036 99.8191 35.0978 99.5491 35.0959ZM99.8344 34.0469C100.03 34.0514 100.223 33.9974 100.388 33.8916C100.55 33.7868 100.682 33.6423 100.772 33.472C100.867 33.2847 100.917 33.0777 100.917 32.8677C100.917 32.6577 100.867 32.4507 100.772 32.2634C100.683 32.0922 100.551 31.9475 100.388 31.8438C100.222 31.7408 100.031 31.6863 99.8355 31.6863C99.6401 31.6863 99.4487 31.7408 99.2826 31.8438C99.12 31.9475 98.9875 32.0922 98.8987 32.2634C98.8036 32.4507 98.754 32.6577 98.754 32.8677C98.754 33.0777 98.8036 33.2847 98.8987 33.472C98.9887 33.6423 99.1209 33.7868 99.2826 33.8916C99.447 33.9971 99.6392 34.0511 99.8344 34.0469Z" fill="#23153C"/>
<path d="M109.811 35.3917C109.481 35.3932 109.153 35.3414 108.84 35.2385C108.543 35.1439 108.264 35.0022 108.013 34.8189C107.769 34.6337 107.556 34.4097 107.384 34.1559C107.199 33.8925 107.057 33.6014 106.964 33.2935C106.868 32.963 106.82 32.6202 106.821 32.2759C106.819 31.9285 106.869 31.5827 106.968 31.2499C107.063 30.9347 107.204 30.6356 107.388 30.3624C107.564 30.0993 107.781 29.8656 108.03 29.67C108.277 29.4756 108.555 29.3239 108.852 29.221C109.161 29.1167 109.485 29.0642 109.811 29.0657C110.109 29.064 110.405 29.1064 110.69 29.1916C111.223 29.3529 111.692 29.6781 112.029 30.1211C112.197 30.3452 112.324 30.5974 112.405 30.8659L111.188 31.1681C111.067 30.8883 110.872 30.6473 110.623 30.4715C110.376 30.3035 110.083 30.2169 109.784 30.2239C109.554 30.2223 109.327 30.274 109.121 30.375C108.915 30.4752 108.734 30.6183 108.588 30.7946C108.435 30.988 108.316 31.2067 108.238 31.4408C108.073 31.966 108.073 32.5292 108.238 33.0543C108.313 33.2848 108.432 33.4986 108.588 33.6838C108.735 33.8608 108.918 34.0039 109.125 34.1034C109.339 34.1999 109.571 34.2486 109.805 34.2461C110.102 34.25 110.394 34.1661 110.644 34.0048C110.902 33.8289 111.105 33.5848 111.232 33.2998L112.461 33.5915C112.349 33.9479 112.157 34.2743 111.901 34.5461C111.643 34.8184 111.331 35.033 110.984 35.1756C110.611 35.3242 110.213 35.3977 109.811 35.3917Z" fill="#23153C"/>
<path d="M116.418 35.3477C116.102 35.3511 115.789 35.2912 115.497 35.1715C115.221 35.0569 114.971 34.8886 114.761 34.6763C114.55 34.4625 114.386 34.2084 114.276 33.9294C114.158 33.6309 114.099 33.3124 114.102 32.9915C114.098 32.6715 114.159 32.354 114.28 32.0578C114.395 31.7794 114.562 31.5258 114.773 31.3109C114.986 31.0965 115.239 30.9267 115.518 30.8115C115.813 30.6915 116.129 30.6308 116.447 30.6332C116.762 30.63 117.075 30.6899 117.366 30.8094C117.643 30.9234 117.893 31.0917 118.103 31.3043C118.313 31.517 118.477 31.7697 118.588 32.0473C118.706 32.3443 118.765 32.6614 118.762 32.981C118.765 33.3024 118.705 33.6212 118.583 33.9189C118.47 34.1992 118.302 34.4544 118.09 34.67C117.878 34.8844 117.625 35.0542 117.345 35.1694C117.051 35.2893 116.736 35.3499 116.418 35.3477ZM116.433 34.284C116.637 34.2867 116.837 34.2282 117.008 34.1161C117.18 34.0003 117.319 33.8411 117.411 33.6545C117.507 33.4469 117.557 33.2206 117.557 32.9915C117.557 32.7624 117.507 32.5361 117.411 32.3285C117.32 32.1421 117.181 31.9835 117.008 31.869C116.837 31.7575 116.638 31.6981 116.434 31.6981C116.23 31.6981 116.031 31.7575 115.86 31.869C115.688 31.9836 115.549 32.1423 115.459 32.3285C115.361 32.5358 115.31 32.7622 115.31 32.9915C115.31 33.2208 115.361 33.4472 115.459 33.6545C115.55 33.8409 115.688 34.0002 115.86 34.1161C116.03 34.228 116.229 34.2864 116.433 34.284Z" fill="#23153C"/>
<path d="M120.615 35.2218V30.7611H121.706L121.739 31.3276C121.867 31.1155 122.048 30.9404 122.264 30.8199C122.442 30.7191 122.638 30.6557 122.841 30.6336C123.044 30.6115 123.25 30.631 123.445 30.6912C123.64 30.7513 123.821 30.8506 123.977 30.9832C124.132 31.1157 124.259 31.2786 124.349 31.4619C124.486 31.2118 124.689 31.0048 124.937 30.8639C125.204 30.708 125.509 30.6288 125.818 30.6352C126.122 30.6271 126.422 30.7081 126.681 30.8681C126.929 31.0294 127.124 31.2599 127.243 31.5312C127.381 31.8507 127.448 32.1965 127.44 32.5446V35.2218H126.259V32.704C126.272 32.4441 126.198 32.1873 126.049 31.9739C125.984 31.8865 125.898 31.8165 125.799 31.7701C125.7 31.7236 125.591 31.7021 125.482 31.7074C125.323 31.7051 125.167 31.748 125.031 31.8312C124.898 31.9131 124.791 32.0319 124.723 32.1732C124.648 32.328 124.61 32.4984 124.614 32.6705V35.2302H123.43V32.7124C123.443 32.4525 123.37 32.1957 123.221 31.9823C123.156 31.8951 123.07 31.8252 122.972 31.7787C122.873 31.7323 122.765 31.7107 122.656 31.7158C122.496 31.7131 122.339 31.756 122.203 31.8396C122.075 31.9182 121.971 32.0308 121.903 32.1648C121.829 32.32 121.792 32.4901 121.794 32.6621V35.2218H120.615Z" fill="#23153C"/>
<path d="M129.456 36.8605V30.7611H130.545L130.579 31.4116C130.728 31.1722 130.938 30.9761 131.187 30.843C131.444 30.7027 131.733 30.6305 132.026 30.6331C132.306 30.6305 132.583 30.6907 132.836 30.8094C133.084 30.9289 133.305 31.0973 133.487 31.3046C133.676 31.5215 133.824 31.772 133.921 32.0431C134.028 32.3382 134.081 32.6502 134.078 32.9642C134.081 33.284 134.026 33.6017 133.917 33.9021C133.816 34.1793 133.664 34.4354 133.47 34.6574C133.282 34.8718 133.052 35.0447 132.794 35.1652C132.531 35.2871 132.245 35.3488 131.955 35.3456C131.695 35.3491 131.438 35.2932 131.204 35.1819C130.982 35.0741 130.788 34.9161 130.637 34.7204V36.8584L129.456 36.8605ZM131.745 34.2839C131.949 34.2868 132.148 34.2283 132.318 34.1161C132.49 34.0003 132.629 33.841 132.721 33.6545C132.818 33.4469 132.868 33.2206 132.868 32.9915C132.868 32.7624 132.818 32.5361 132.721 32.3285C132.63 32.1421 132.491 31.9835 132.318 31.869C132.147 31.7575 131.948 31.6981 131.744 31.6981C131.54 31.6981 131.341 31.7575 131.17 31.869C130.998 31.9836 130.86 32.1422 130.77 32.3285C130.671 32.5357 130.621 32.7622 130.621 32.9915C130.621 33.2208 130.671 33.4472 130.77 33.6545C130.86 33.8409 130.998 34.0001 131.17 34.1161C131.342 34.229 131.544 34.2875 131.749 34.2839H131.745Z" fill="#23153C"/>
<path d="M137.307 35.3478C137.094 35.3498 136.881 35.3158 136.678 35.2471C136.493 35.1836 136.322 35.0845 136.174 34.9554C136.034 34.8321 135.921 34.6815 135.841 34.5127C135.762 34.3374 135.722 34.147 135.723 33.9546C135.718 33.6889 135.798 33.4286 135.952 33.2118C136.116 32.988 136.338 32.8137 136.594 32.7083C136.899 32.5825 137.227 32.5211 137.557 32.5279C137.734 32.5271 137.91 32.5439 138.084 32.5782C138.25 32.612 138.413 32.6597 138.571 32.7209V32.4607C138.582 32.2359 138.507 32.0152 138.361 31.8439C138.286 31.7638 138.195 31.7011 138.093 31.6601C137.992 31.6192 137.883 31.601 137.773 31.6068C137.595 31.6048 137.42 31.6528 137.268 31.7452C137.118 31.835 137.004 31.9746 136.947 32.1397L135.898 31.9299C135.958 31.6743 136.085 31.4396 136.267 31.2501C136.454 31.0511 136.684 30.8963 136.938 30.7969C137.212 30.6885 137.504 30.6344 137.798 30.6374C138.067 30.6337 138.333 30.6793 138.585 30.7717C138.813 30.8559 139.021 30.987 139.194 31.1565C139.368 31.326 139.505 31.5302 139.594 31.7557C139.69 31.9996 139.737 32.2597 139.733 32.5216V35.224H138.684L138.65 34.6994C138.524 34.8999 138.346 35.0624 138.134 35.1694C137.879 35.2992 137.594 35.3606 137.307 35.3478ZM136.888 33.8959C136.886 33.9713 136.903 34.046 136.937 34.1136C136.97 34.1812 137.02 34.2397 137.081 34.284C137.231 34.3917 137.413 34.4456 137.597 34.4372C137.77 34.4399 137.941 34.3988 138.094 34.3176C138.237 34.2431 138.357 34.1305 138.44 33.9924C138.526 33.8545 138.57 33.6951 138.568 33.5329V33.4909C138.439 33.4384 138.306 33.397 138.17 33.3671C138.032 33.3374 137.891 33.3219 137.75 33.321C137.529 33.3095 137.31 33.3643 137.121 33.4783C137.048 33.5209 136.988 33.582 136.947 33.6554C136.906 33.7287 136.885 33.8117 136.886 33.8959H136.888Z" fill="#23153C"/>
<path d="M141.732 35.2217V30.761H142.823L142.857 31.3359C142.988 31.121 143.173 30.9445 143.394 30.8239C143.649 30.6927 143.933 30.6279 144.219 30.6356C144.506 30.6433 144.785 30.7233 145.033 30.868C145.283 31.0288 145.481 31.2593 145.601 31.531C145.746 31.8489 145.818 32.1952 145.811 32.5444V35.2217H144.628V32.7039C144.643 32.4437 144.569 32.1863 144.418 31.9737C144.349 31.8861 144.26 31.8162 144.159 31.7699C144.057 31.7235 143.946 31.702 143.835 31.7072C143.668 31.704 143.504 31.7468 143.361 31.831C143.224 31.9135 143.113 32.0318 143.04 32.173C142.96 32.3266 142.92 32.4974 142.922 32.6703V35.2301L141.732 35.2217Z" fill="#23153C"/>
<path d="M149.091 29.5546C149.093 29.6757 149.062 29.7952 149.003 29.9007C148.944 30.0013 148.859 30.084 148.757 30.1399C148.653 30.1992 148.535 30.2303 148.415 30.2303C148.295 30.2303 148.178 30.1992 148.073 30.1399C147.971 30.084 147.886 30.0013 147.828 29.9007C147.77 29.7941 147.74 29.6748 147.74 29.5535C147.74 29.4322 147.77 29.3129 147.828 29.2063C147.886 29.1057 147.971 29.023 148.073 28.9671C148.178 28.9078 148.295 28.8767 148.415 28.8767C148.535 28.8767 148.653 28.9078 148.757 28.9671C148.859 29.023 148.944 29.1057 149.003 29.2063C149.063 29.3125 149.093 29.4327 149.091 29.5546ZM147.832 35.2196V30.761H149.015V35.2217L147.832 35.2196Z" fill="#23153C"/>
<path d="M153.165 35.3476C152.85 35.351 152.537 35.2911 152.244 35.1714C151.969 35.0567 151.72 34.8884 151.51 34.6762C151.299 34.463 151.133 34.2088 151.023 33.9293C150.906 33.6306 150.848 33.3122 150.851 32.9914C150.848 32.6716 150.908 32.3543 151.027 32.0577C151.143 31.7792 151.311 31.5256 151.523 31.3108C151.734 31.096 151.987 30.9262 152.265 30.8114C152.562 30.6915 152.879 30.6316 153.199 30.6352C153.515 30.6322 153.828 30.6921 154.12 30.8114C154.395 30.9261 154.645 31.0944 154.855 31.3066C155.063 31.52 155.228 31.7724 155.339 32.0493C155.457 32.3463 155.516 32.6634 155.513 32.983C155.517 33.3044 155.456 33.6232 155.335 33.9209C155.224 34.2026 155.057 34.4592 154.844 34.6754C154.632 34.8916 154.379 35.0631 154.099 35.1798C153.802 35.2966 153.485 35.3537 153.165 35.3476ZM153.182 34.2839C153.386 34.2863 153.587 34.2279 153.757 34.116C153.928 33.9995 154.067 33.8404 154.158 33.6544C154.255 33.4468 154.305 33.2205 154.305 32.9914C154.305 32.7623 154.255 32.536 154.158 32.3284C154.067 32.1426 153.929 31.9841 153.757 31.8689C153.586 31.757 153.387 31.6973 153.182 31.6973C152.978 31.6973 152.778 31.757 152.607 31.8689C152.435 31.9835 152.297 32.1422 152.207 32.3284C152.109 32.5357 152.058 32.7621 152.058 32.9914C152.058 33.2207 152.109 33.4471 152.207 33.6544C152.297 33.8408 152.436 34 152.607 34.116C152.78 34.2291 152.982 34.2876 153.189 34.2839H153.182Z" fill="#23153C"/>
<path d="M157.362 35.2217V30.761H158.451L158.484 31.3359C158.615 31.121 158.801 30.9445 159.021 30.8239C159.276 30.6927 159.56 30.6279 159.846 30.6356C160.133 30.6433 160.413 30.7233 160.66 30.868C160.911 31.0287 161.109 31.2592 161.231 31.531C161.374 31.8493 161.446 32.1953 161.441 32.5444V35.2217H160.257V32.7039C160.272 32.4437 160.198 32.1863 160.047 31.9737C159.978 31.8861 159.89 31.8162 159.788 31.7699C159.687 31.7235 159.576 31.702 159.464 31.7072C159.298 31.7037 159.135 31.7466 158.992 31.831C158.855 31.9122 158.743 32.0308 158.671 32.173C158.59 32.3259 158.548 32.4971 158.551 32.6703V35.2301L157.362 35.2217Z" fill="#23153C"/>
<defs>
<linearGradient id="paint0_linear_42_1250" x1="42.9977" y1="24.8842" x2="161.474" y2="24.8842" gradientUnits="userSpaceOnUse">
<stop stop-color="#FDABA6"/>
<stop offset="0.26" stop-color="#FF0040"/>
<stop offset="0.51" stop-color="#2800D8"/>
<stop offset="0.7" stop-color="#0064D6"/>
<stop offset="1" stop-color="#00C8D2"/>
</linearGradient>
<linearGradient id="paint1_linear_42_1250" x1="42.9975" y1="24.8842" x2="161.474" y2="24.8842" gradientUnits="userSpaceOnUse">
<stop stop-color="#FDABA6"/>
<stop offset="0.26" stop-color="#FF0040"/>
<stop offset="0.51" stop-color="#2800D8"/>
<stop offset="0.7" stop-color="#0064D6"/>
<stop offset="1" stop-color="#00C8D2"/>
</linearGradient>
<linearGradient id="paint2_linear_42_1250" x1="13.9238" y1="-1.79649" x2="24.5627" y2="29.0422" gradientUnits="userSpaceOnUse">
<stop stop-color="#00E0DD"/>
<stop offset="0.53" stop-color="#30A1F5"/>
<stop offset="1" stop-color="#180186"/>
</linearGradient>
<linearGradient id="paint3_linear_42_1250" x1="22.3401" y1="33.6216" x2="3.73418" y2="1.91677" gradientUnits="userSpaceOnUse">
<stop stop-color="#FBA9A4"/>
<stop offset="0.47" stop-color="#D6024F"/>
<stop offset="0.96" stop-color="#9301D5"/>
</linearGradient>
</defs>
</svg>
