<?xml version="1.0" encoding="utf-8"?>
<!-- Generator: Adobe Illustrator 25.4.1, SVG Export Plug-In . SVG Version: 6.00 Build 0)  -->
<svg version="1.1" id="Layer_1" xmlns="http://www.w3.org/2000/svg" xmlns:xlink="http://www.w3.org/1999/xlink" x="0px" y="0px"
	 viewBox="0 0 24 24" style="enable-background:new 0 0 24 24;" xml:space="preserve">
<style type="text/css">
	.st0{fill:#5E616D;}
</style>
<g>
	<g>
		<path class="st0" d="M1.2,12C1.2,6,6,1.2,12,1.2C18,1.2,22.8,6,22.8,12c0,6-4.9,10.8-10.8,10.8C6,22.8,1.2,18,1.2,12z M2.7,12
			c0,5.1,4.1,9.3,9.3,9.3c5.1,0,9.3-4.1,9.3-9.3c0-5.1-4.1-9.3-9.3-9.3C6.9,2.7,2.7,6.8,2.7,12z"/>
	</g>
	<g>
		<circle class="st0" cx="12" cy="8" r="1.2"/>
		<path class="st0" d="M12,17.1L12,17.1c-0.6,0-1.2-0.5-1.2-1.2v-4.5c0-0.6,0.5-1.2,1.2-1.2h0c0.6,0,1.2,0.5,1.2,1.2V16
			C13.2,16.6,12.6,17.1,12,17.1z"/>
	</g>
</g>
</svg>
