<?xml version="1.0" encoding="utf-8"?>
<!-- Generator: Adobe Illustrator 25.4.1, SVG Export Plug-In . SVG Version: 6.00 Build 0)  -->
<svg version="1.1" id="Layer_1" xmlns="http://www.w3.org/2000/svg" xmlns:xlink="http://www.w3.org/1999/xlink" x="0px" y="0px"
	 viewBox="0 0 24 24" style="enable-background:new 0 0 24 24;" xml:space="preserve">
<style type="text/css">
	.st0{fill:url(#SVGID_1_);}
</style>
<linearGradient id="SVGID_1_" gradientUnits="userSpaceOnUse" x1="5.5772" y1="3.2743" x2="18.423" y2="20.7248">
	<stop  offset="0" style="stop-color:#FDABA6"/>
	<stop  offset="0.2865" style="stop-color:#FF2054"/>
	<stop  offset="0.6198" style="stop-color:#2A0DD4"/>
	<stop  offset="1" style="stop-color:#01C5D2"/>
</linearGradient>
<path class="st0" d="M1.2,12C1.2,6,6,1.2,12,1.2C18,1.2,22.8,6,22.8,12c0,6-4.9,10.8-10.8,10.8C6,22.8,1.2,18,1.2,12z M2.7,12
	c0,5.1,4.1,9.3,9.3,9.3c5.1,0,9.3-4.1,9.3-9.3c0-5.1-4.1-9.3-9.3-9.3C6.9,2.7,2.7,6.8,2.7,12z M12,6.9c-0.6,0-1.2,0.5-1.2,1.2
	c0,0.6,0.5,1.2,1.2,1.2s1.2-0.5,1.2-1.2C13.2,7.4,12.6,6.9,12,6.9z M13.2,16v-4.5c0-0.6-0.5-1.2-1.2-1.2h0c-0.6,0-1.2,0.5-1.2,1.2
	V16c0,0.6,0.5,1.2,1.2,1.2h0C12.6,17.1,13.2,16.6,13.2,16z"/>
</svg>
